# xmcd
#
# Track frame offsets:
#	150
#	12500
#	24256
#	32220
#	43059
#	53375
#	66924
#	78960
#	86808
#	98877
#	110241
#	118777
#	127154
#	136754
#	146593
#	157912
#	167535
#	176307
#	185601
#	193535
#	204972
#	217332
#	225496
#	233883
#	244270
#
# Disc length: 3389 seconds
#
# Revision: 1
# Processed by: cddbd v1.5.2PL0 Copyright (c) Steve Scherf et al.
# Submitted via: audiograbber 1.83.01
#
DISCID=5b0d3b19
DTITLE=Johnny Cash - Hot Hundred [CD 2)
DYEAR=2014
DGENRE=Country
TTITLE0=I Walk The Line
TTITLE1=I Still Miss Someone
TTITLE2=Five Feet High And Rising
TTITLE3=Train Of Love
TTITLE4=The Ways Of A Woman In Love
TTITLE5=Tennessee Flat Top Box
TTITLE6=You're The Nearest Thing To Heaven
TTITLE7=I Can't Help It
TTITLE8=Home Of The Blues
TTITLE9=Big River
TTITLE10=Drink To Me
TTITLE11=Guess Things Happen That Way
TTITLE12=The Man On The Hill
TTITLE13=Hank And Joe And Me
TTITLE14=Clementine
TTITLE15=The Great Speckled Bird
TTITLE16=I Want To Go Home
TTITLE17=The Caretakers
TTITLE18=Old Apache Squaw
TTITLE19=Don't Step On Mother's Roses
TTITLE20=My Grandfather's Clock
TTITLE21=It Could Be You (Instead Of Him)
TTITLE22=I'll Remeber You
TTITLE23=You Win Again
TTITLE24=I Could Never Be Ashamed Of You
EXTD=
EXTT0=
EXTT1=
EXTT2=
EXTT3=
EXTT4=
EXTT5=
EXTT6=
EXTT7=
EXTT8=
EXTT9=
EXTT10=
EXTT11=
EXTT12=
EXTT13=
EXTT14=
EXTT15=
EXTT16=
EXTT17=
EXTT18=
EXTT19=
EXTT20=
EXTT21=
EXTT22=
EXTT23=
EXTT24=
PLAYORDER=
